<svg id="visual" viewBox="0 0 960 540" width="960" height="540" xmlns="http://www.w3.org/2000/svg" xmlns:xlink="http://www.w3.org/1999/xlink" version="1.1"><path d="M0 50L22.8 50.8C45.7 51.7 91.3 53.3 137 58.7C182.7 64 228.3 73 274 77.5C319.7 82 365.3 82 411.2 82.8C457 83.7 503 85.3 548.8 84.5C594.7 83.7 640.3 80.3 686 78.7C731.7 77 777.3 77 823 73.3C868.7 69.7 914.3 62.3 937.2 58.7L960 55L960 0L937.2 0C914.3 0 868.7 0 823 0C777.3 0 731.7 0 686 0C640.3 0 594.7 0 548.8 0C503 0 457 0 411.2 0C365.3 0 319.7 0 274 0C228.3 0 182.7 0 137 0C91.3 0 45.7 0 22.8 0L0 0Z" fill="#ffffff"></path><path d="M0 152L22.8 155.7C45.7 159.3 91.3 166.7 137 182C182.7 197.3 228.3 220.7 274 235C319.7 249.3 365.3 254.7 411.2 245.7C457 236.7 503 213.3 548.8 203.5C594.7 193.7 640.3 197.3 686 210C731.7 222.7 777.3 244.3 823 246.2C868.7 248 914.3 230 937.2 221L960 212L960 53L937.2 56.7C914.3 60.3 868.7 67.7 823 71.3C777.3 75 731.7 75 686 76.7C640.3 78.3 594.7 81.7 548.8 82.5C503 83.3 457 81.7 411.2 80.8C365.3 80 319.7 80 274 75.5C228.3 71 182.7 62 137 56.7C91.3 51.3 45.7 49.7 22.8 48.8L0 48Z" fill="#ffe5d7"></path><path d="M0 260L22.8 261.8C45.7 263.7 91.3 267.3 137 279C182.7 290.7 228.3 310.3 274 326.5C319.7 342.7 365.3 355.3 411.2 351.8C457 348.3 503 328.7 548.8 310.7C594.7 292.7 640.3 276.3 686 279.8C731.7 283.3 777.3 306.7 823 311.2C868.7 315.7 914.3 301.3 937.2 294.2L960 287L960 210L937.2 219C914.3 228 868.7 246 823 244.2C777.3 242.3 731.7 220.7 686 208C640.3 195.3 594.7 191.7 548.8 201.5C503 211.3 457 234.7 411.2 243.7C365.3 252.7 319.7 247.3 274 233C228.3 218.7 182.7 195.3 137 180C91.3 164.7 45.7 157.3 22.8 153.7L0 150Z" fill="#fecbb0"></path><path d="M0 325L22.8 330.3C45.7 335.7 91.3 346.3 137 361.7C182.7 377 228.3 397 274 414.2C319.7 431.3 365.3 445.7 411.2 434.8C457 424 503 388 548.8 369.2C594.7 350.3 640.3 348.7 686 359.5C731.7 370.3 777.3 393.7 823 399.8C868.7 406 914.3 395 937.2 389.5L960 384L960 285L937.2 292.2C914.3 299.3 868.7 313.7 823 309.2C777.3 304.7 731.7 281.3 686 277.8C640.3 274.3 594.7 290.7 548.8 308.7C503 326.7 457 346.3 411.2 349.8C365.3 353.3 319.7 340.7 274 324.5C228.3 308.3 182.7 288.7 137 277C91.3 265.3 45.7 261.7 22.8 259.8L0 258Z" fill="#f9b18a"></path><path d="M0 541L22.8 541C45.7 541 91.3 541 137 541C182.7 541 228.3 541 274 541C319.7 541 365.3 541 411.2 541C457 541 503 541 548.8 541C594.7 541 640.3 541 686 541C731.7 541 777.3 541 823 541C868.7 541 914.3 541 937.2 541L960 541L960 382L937.2 387.5C914.3 393 868.7 404 823 397.8C777.3 391.7 731.7 368.3 686 357.5C640.3 346.7 594.7 348.3 548.8 367.2C503 386 457 422 411.2 432.8C365.3 443.7 319.7 429.3 274 412.2C228.3 395 182.7 375 137 359.7C91.3 344.3 45.7 333.7 22.8 328.3L0 323Z" fill="#f29864"></path></svg>